M48
; DRILL file {KiCad (5.1.4)-1} date 25/05/2020 7:10:00 p. m.
; FORMAT={-:-/ absolute / inch / decimal}
; #@! TF.CreationDate,2020-05-25T19:10:00-05:00
; #@! TF.GenerationSoftware,Kicad,Pcbnew,(5.1.4)-1
; #@! TF.FileFunction,Plated,1,2,PTH
FMAT,2
INCH
T1C0.0394
T2C0.0400
%
G90
G05
T1
X7.1Y-2.2
X7.1Y-3.55
X7.1Y-4.25
X7.6772Y-3.4646
X7.874Y-4.7606
X7.874Y-4.8606
X7.874Y-4.9606
X7.874Y-5.0606
X5.5512Y-3.6402
X5.5512Y-3.7402
X5.5512Y-3.8402
X5.5512Y-3.9402
X7.874Y-2.4378
X7.874Y-2.5378
X7.874Y-2.6378
X7.874Y-2.7378
X7.874Y-2.8378
X7.874Y-2.9378
X7.874Y-3.0378
X7.874Y-3.1378
X5.5512Y-4.9213
X5.6512Y-4.9213
X5.55Y-3.05
X5.55Y-3.15
X6.0567Y-1.6929
X6.1567Y-1.6929
X6.2567Y-1.6929
X6.3567Y-1.6929
X6.4567Y-1.6929
X6.5567Y-1.6929
X6.6567Y-1.6929
X6.7567Y-1.6929
X6.8567Y-1.6929
X6.9567Y-1.6929
T2
X6.0343Y-2.735
X6.0343Y-2.835
X6.0343Y-2.935
X6.0343Y-3.035
X6.0343Y-3.135
X6.0343Y-3.235
X6.0343Y-3.335
X6.0343Y-3.435
X6.0343Y-3.535
X6.0343Y-3.635
X6.0343Y-3.735
X6.0343Y-3.835
X6.0343Y-3.935
X6.0343Y-4.035
X6.0343Y-4.135
X6.0343Y-4.235
X6.0343Y-4.335
X6.0343Y-4.435
X6.0343Y-4.535
X6.0343Y-4.635
X6.9343Y-2.735
X6.9343Y-2.835
X6.9343Y-2.935
X6.9343Y-3.035
X6.9343Y-3.135
X6.9343Y-3.235
X6.9343Y-3.335
X6.9343Y-3.435
X6.9343Y-3.535
X6.9343Y-3.635
X6.9343Y-3.735
X6.9343Y-3.835
X6.9343Y-3.935
X6.9343Y-4.035
X6.9343Y-4.135
X6.9343Y-4.235
X6.9343Y-4.335
X6.9343Y-4.435
X6.9343Y-4.535
X6.9343Y-4.635
T0
M30
